#!OML:ASF F:\VICON\USERDATA\INSTALL\rory3\rory3.ASF
:FULLY-SPECIFIED
:DEGREES
1041
root 3.27648 17.7575 7.12826 -179.629 -32.1116 176.976
lowerback 11.6711 2.63582 1.09726
upperback 1.23004 3.51371 -0.557797
thorax -5.1446 1.66161 -1.75248
lowerneck -16.7651 2.07264 -11.0103
upperneck 38.9427 2.78025 4.07
head 16.6315 -0.837723 4.01406
rclavicle 6.65929e-015 -6.75868e-015
rhumerus -33.6253 -14.1335 -76.7392
rradius 33.3882
rwrist 6.3436
rhand -17.3706 10.1783
rfingers 7.12502
rthumb 8.87771 -19.6149
lclavicle 6.65929e-015 -6.75868e-015
lhumerus -25.1061 9.3417 75.6991
lradius 29.1841
lwrist -4.08957
lhand -20.7377 25.681
lfingers 7.12502
lthumb 5.62758 55.5863
rfemur -3.33231 -5.20722 22.4008
rtibia 34.7681
rfoot -21.1351 2.11127
rtoes 5.01181
lfemur -11.9353 -3.24556 -22.4574
ltibia 27.013
lfoot -15.8903 -12.2543
ltoes -16.1076
1042
root 3.25176 17.7525 7.18708 -179.679 -32.1033 177.197
lowerback 11.5775 2.63498 1.49346
upperback 1.29076 3.56481 -0.48169
thorax -5.00744 1.6815 -1.8954
lowerneck -16.806 2.14246 -11.0029
upperneck 38.8691 2.98551 3.89013
head 16.588 -0.766531 3.9669
rclavicle 1.08686e-013 8.74653e-015
rhumerus -33.3577 -13.5041 -76.7838
rradius 33.4218
rwrist 6.27502
rhand -18.1693 10.6782
rfingers 7.12502
rthumb 8.10694 -19.1463
lclavicle 1.08686e-013 8.74653e-015
lhumerus -25.2502 9.91783 75.8385
lradius 29.3363
lwrist -3.17306
lhand -21.4888 25.8864
lfingers 7.12502
lthumb 4.90238 55.8097
rfemur -3.14391 -5.0714 22.4136
rtibia 34.0968
rfoot -21.498 2.00157
rtoes 4.37405
lfemur -12.4076 -3.03434 -22.3163
ltibia 27.552
lfoot -16.5844 -12.3364
ltoes -17.5222
1043
root 3.22754 17.7443 7.24496 -179.678 -32.1051 177.282
lowerback 11.5617 2.64476 1.76896
upperback 1.31972 3.61321 -0.446664
thorax -4.95136 1.70103 -2.01841
lowerneck -16.8411 2.18191 -11.0018
upperneck 38.8577 3.09145 3.81462
head 16.5826 -0.729691 3.95226
rclavicle -5.71506e-015 1.78906e-014
rhumerus -33.2238 -12.8388 -76.8455
rradius 33.7078
rwrist 6.01559
rhand -17.9711 10.7357
rfingers 7.12502
rthumb 8.29824 -19.0813
lclavicle -5.71506e-015 1.78906e-014
lhumerus -25.3889 10.799 75.888
lradius 29.3135
lwrist -2.79749
lhand -21.8165 25.799
lfingers 7.12502
lthumb 4.58592 55.7294
rfemur -2.98716 -4.88964 22.2843
rtibia 33.4675
rfoot -21.8079 1.97786
rtoes 3.63529
lfemur -12.8593 -2.72558 -22.289
ltibia 28.1044
lfoot -17.3925 -12.356
ltoes -19.6271
1044
root 3.20645 17.7392 7.3018 -179.696 -32.1648 177.428
lowerback 11.5855 2.67058 2.0306
upperback 1.30117 3.6861 -0.37744
thorax -4.96873 1.73237 -2.10552
lowerneck -16.779 2.16213 -11.0399
upperneck 38.8599 3.04172 3.87127
head 16.5707 -0.747044 3.97456
rclavicle 1.51076e-014 -1.11319e-014
rhumerus -33.2114 -12.261 -76.7738
rradius 34.1169
rwrist 5.75119
rhand -16.9685 10.6151
rfingers 7.12502
rthumb 9.26576 -19.1613
lclavicle 1.51076e-014 -1.11319e-014
lhumerus -25.5553 11.692 75.907
lradius 29.1247
lwrist -2.91023
lhand -21.8119 25.2068
lfingers 7.12502
lthumb 4.59039 55.1371
rfemur -2.8819 -4.63908 22.2374
rtibia 32.8996
rfoot -21.9297 2.22152
rtoes 4.77068
lfemur -13.3375 -2.50212 -22.173
ltibia 28.6127
lfoot -17.9391 -12.5787
ltoes -21.9043
1045
root 3.18509 17.7395 7.35929 -179.671 -32.23 177.534
lowerback 11.5923 2.67999 2.2163
upperback 1.26129 3.72884 -0.306652
thorax -5.00528 1.75018 -2.14381
lowerneck -16.7173 2.16301 -11.0594
upperneck 38.8897 3.01317 3.9225
head 16.5714 -0.757592 3.99528
rclavicle -7.4743e-014 2.74323e-014
rhumerus -33.1231 -11.6885 -76.6826
rradius 34.3091
rwrist 5.62091
rhand -16.4419 10.6956
rfingers 7.12502
rthumb 9.7738 -19.0576
lclavicle -7.4743e-014 2.74323e-014
lhumerus -25.8469 12.4553 75.9395
lradius 29.0699
lwrist -2.9617
lhand -21.9049 25.334
lfingers 7.12502
lthumb 4.50057 55.2662
rfemur -2.8248 -4.46352 22.1371
rtibia 32.4059
rfoot -22.0369 2.53134
rtoes 5.80084
lfemur -13.8323 -2.37989 -22.0751
ltibia 29.0729
lfoot -17.9224 -13.3383
ltoes -23.0907
1046
root 3.16202 17.7405 7.41708 -179.53 -32.2298 177.494
lowerback 11.6006 2.7091 2.28983
upperback 1.20352 3.78244 -0.277
thorax -5.06524 1.77488 -2.16469
lowerneck -16.7421 2.17031 -11.0908
upperneck 38.9832 3.02804 3.92433
head 16.6253 -0.765346 4.00768
rclavicle 8.77634e-014 -1.59028e-014
rhumerus -32.9071 -11.2908 -76.5645
rradius 34.2611
rwrist 5.6012
rhand -16.652 10.8084
rfingers 7.12502
rthumb 9.57111 -18.9542
lclavicle 8.77634e-014 -1.59028e-014
lhumerus -26.2194 12.8212 76.0764
lradius 29.2442
lwrist -2.68023
lhand -21.9202 26.1882
lfingers 7.12502
lthumb 4.4858 56.1207
rfemur -2.84088 -4.47512 21.8614
rtibia 31.952
rfoot -22.176 2.81665
rtoes 5.30521
lfemur -14.3532 -2.32067 -22.0943
ltibia 29.5085
lfoot -17.899 -14.1361
ltoes -24.0867
1047
root 3.14125 17.7376 7.47272 -179.391 -32.2352 177.439
lowerback 11.5631 2.72358 2.2838
upperback 1.21051 3.80351 -0.213589
thorax -5.04079 1.78654 -2.09594
lowerneck -16.8634 2.19971 -11.0825
upperneck 39.0543 3.12902 3.828
head 16.6874 -0.741294 3.98632
rclavicle -1.48095e-014 -1.98785e-015
rhumerus -32.5549 -11 -76.4002
rradius 34.2257
rwrist 5.51855
rhand -16.7236 10.8194
rfingers 7.12502
rthumb 9.50201 -18.9464
lclavicle -1.48095e-014 -1.98785e-015
lhumerus -26.4567 13.0607 76.319
lradius 29.3671
lwrist -2.26265
lhand -21.856 26.0493
lfingers 7.12502
lthumb 4.54783 55.9805
rfemur -2.85202 -4.57647 21.595
rtibia 31.5429
rfoot -22.3721 2.98797
rtoes 4.52604
lfemur -14.8458 -2.34809 -22.0869
ltibia 29.8839
lfoot -18.0864 -14.6362
ltoes -25.2691
1048
root 3.12337 17.7392 7.52854 -179.349 -32.269 177.442
lowerback 11.666 2.71639 2.30263
upperback 1.1786 3.80284 -0.157692
thorax -5.13427 1.78418 -2.05509
lowerneck -17.0605 2.30352 -11.1573
upperneck 39.279 3.27935 3.96372
head 16.8326 -0.691749 4.09986
rclavicle -4.45278e-014 -3.37934e-014
rhumerus -32.4473 -10.8064 -76.2336
rradius 34.4507
rwrist 5.47425
rhand -16.5183 10.6692
rfingers 7.12502
rthumb 9.70008 -19.0874
lclavicle -4.45278e-014 -3.37934e-014
lhumerus -26.6592 13.4258 76.4487
lradius 29.26
lwrist -2.22074
lhand -21.9027 25.2199
lfingers 7.12502
lthumb 4.50269 55.152
rfemur -2.82129 -4.61387 21.4492
rtibia 31.1762
rfoot -22.4611 2.86095
rtoes 3.30372
lfemur -15.2507 -2.517 -21.9761
ltibia 30.2086
lfoot -18.2021 -15.0218
ltoes -25.096
1049
root 3.10308 17.7446 7.58558 -179.396 -32.3434 177.544
lowerback 11.8714 2.67255 2.45833
upperback 1.1043 3.77533 -0.107361
thorax -5.32139 1.76351 -2.0997
lowerneck -17.4259 2.3996 -11.5712
upperneck 39.703 3.39964 4.48022
head 17.1097 -0.672015 4.45541
rclavicle 4.50744e-014 -3.18055e-015
rhumerus -32.3549 -10.479 -76.13
rradius 34.5838
rwrist 5.43356
rhand -16.6012 10.6201
rfingers 7.12502
rthumb 9.62009 -19.1402
lclavicle 4.50744e-014 -3.18055e-015
lhumerus -26.9661 13.5884 76.5526
lradius 29.2076
lwrist -2.2654
lhand -21.8445 24.9371
lfingers 7.12502
lthumb 4.5589 54.868
rfemur -2.79885 -4.64562 21.423
rtibia 30.8087
rfoot -22.3548 2.65077
rtoes 2.7706
lfemur -15.5965 -2.78348 -21.7472
ltibia 30.5348
lfoot -18.2881 -15.3243
ltoes -24.8948
1050
root 3.08322 17.7494 7.64011 -179.554 -32.3483 177.876
lowerback 11.9629 2.65095 2.71527
upperback 1.10147 3.78992 0.0440397
thorax -5.36819 1.76435 -2.09255
lowerneck -17.6813 2.36166 -11.9335
upperneck 39.8496 3.40073 4.77004
head 17.2368 -0.697043 4.66774
rclavicle 7.40473e-015 1.98785e-015
rhumerus -32.002 -10.1473 -75.9897
rradius 34.527
rwrist 5.35252
rhand -16.7795 10.5727
rfingers 7.12502
rthumb 9.44812 -19.1955
lclavicle 7.40473e-015 1.98785e-015
lhumerus -27.2441 13.7041 76.7679
lradius 29.2789
lwrist -2.28815
lhand -21.8084 25.0355
lfingers 7.12502
lthumb 4.59383 54.9657
rfemur -2.78525 -4.53764 21.6472
rtibia 30.4336
rfoot -22.2261 2.3857
rtoes 3.34844
lfemur -15.9293 -2.96781 -21.2641
ltibia 30.8651
lfoot -18.3837 -15.2783
ltoes -24.8731
1051
root 3.06422 17.7545 7.69252 -179.665 -32.2587 178.137
lowerback 12.0149 2.69661 2.86288
upperback 1.11621 3.87629 0.171913
thorax -5.37628 1.80348 -2.05722
lowerneck -17.6843 2.34783 -11.8463
upperneck 39.804 3.4005 4.66135
head 17.2197 -0.692911 4.6011
rclavicle -8.89064e-014 -2.06736e-014
rhumerus -31.629 -10.1306 -75.7786
rradius 34.427
rwrist 5.34718
rhand -16.9221 10.6727
rfingers 7.12502
rthumb 9.31049 -19.1017
lclavicle -8.89064e-014 -2.06736e-014
lhumerus -27.4352 13.9066 76.9542
lradius 29.2534
lwrist -2.47478
lhand -21.65 25.133
lfingers 7.12502
lthumb 4.74678 55.0598
rfemur -2.77757 -4.204 21.833
rtibia 30.0864
rfoot -22.103 2.03665
rtoes 3.74855
lfemur -16.2112 -3.10069 -20.809
ltibia 31.1565
lfoot -18.7522 -14.4103
ltoes -25.5584
1052
root 3.04449 17.764 7.74587 -179.657 -32.1917 178.216
lowerback 12.1289 2.68494 2.89345
upperback 1.07189 3.8732 0.226994
thorax -5.48854 1.79881 -2.02429
lowerneck -17.652 2.48134 -11.6036
upperneck 39.8285 3.55794 4.53348
head 17.2138 -0.6132 4.52674
rclavicle 7.30037e-014 1.11319e-014
rhumerus -31.3288 -10.2836 -75.5632
rradius 34.3027
rwrist 5.60722
rhand -16.791 10.6546
rfingers 7.12502
rthumb 9.43701 -19.1141
lclavicle 7.30037e-014 1.11319e-014
lhumerus -27.6958 14.1478 77.0233
lradius 29.1702
lwrist -2.79017
lhand -21.4643 25.0055
lfingers 7.12502
lthumb 4.92606 54.9282
rfemur -2.81158 -3.75716 21.8603
rtibia 29.7937
rfoot -21.9104 1.67272
rtoes 4.52079
lfemur -16.4639 -3.24357 -20.4996
ltibia 31.4042
lfoot -18.9943 -13.099
ltoes -26.3342
1053
root 3.02066 17.7799 7.8002 -179.62 -32.1753 178.285
lowerback 12.1661 2.63633 2.95223
upperback 1.0687 3.82076 0.293181
thorax -5.51608 1.77113 -1.98171
lowerneck -17.7068 2.57494 -11.5093
upperneck 39.831 3.70475 4.47728
head 17.2146 -0.54582 4.51217
rclavicle -8.24956e-015 -3.73715e-014
rhumerus -30.9817 -10.4675 -75.3292
rradius 34.1758
rwrist 5.90287
rhand -16.5357 10.579
rfingers 7.12502
rthumb 9.68333 -19.1784
lclavicle -8.24956e-015 -3.73715e-014
lhumerus -27.8849 14.3114 77.1891
lradius 29.0308
lwrist -3.07718
lhand -21.5346 24.7935
lfingers 7.12502
lthumb 4.85815 54.7178
rfemur -2.9021 -3.48734 21.836
rtibia 29.5554
rfoot -21.7033 1.39334
rtoes 5.03434
lfemur -16.7121 -3.4148 -20.1837
ltibia 31.6011
lfoot -18.7825 -11.9487
ltoes -25.5088
